<svg width="2158" height="507" viewBox="0 0 2158 507" fill="none" xmlns="http://www.w3.org/2000/svg">
<mask id="mask0_25_100" style="mask-type:alpha" maskUnits="userSpaceOnUse" x="57" y="55" width="388" height="390">
<path d="M348 250C401.572 250 445 206.348 445 152.5C445 98.6522 401.572 55 348 55H57V152.5C57 170.09 61.6342 186.592 69.7424 200.84C86.4554 230.209 117.928 250 154 250C118.265 250 87.043 269.424 70.214 298.34C61.8141 312.773 57 329.572 57 347.5V445H348C401.572 445 445 401.348 445 347.5C445 293.652 401.572 250 348 250Z" fill="#C4C4C4"/>
</mask>
<g mask="url(#mask0_25_100)">
<rect width="293" height="390" transform="matrix(-1 0 0 1 600 55)" fill="url(#paint0_linear_25_100)"/>
<rect x="14" y="55" width="293" height="390" fill="url(#paint1_linear_25_100)"/>
</g>
<mask id="mask1_25_100" style="mask-type:alpha" maskUnits="userSpaceOnUse" x="57" y="171" width="255" height="160">
<path d="M57 251C57 295.183 92.9141 331 137.216 331H312V172.333L137.216 171C92.9141 171 57 206.817 57 251Z" fill="#C4C4C4"/>
</mask>
<g mask="url(#mask1_25_100)">
<rect x="15" y="171" width="316" height="160" fill="url(#paint2_linear_25_100)"/>
</g>
<path d="M758.255 242.859C780.67 247.62 798.675 258.789 812.271 276.366C825.867 293.577 832.665 313.352 832.665 335.69C832.665 367.916 821.274 393.549 798.491 412.592C776.076 431.268 744.659 440.606 704.238 440.606H524V55H698.175C737.493 55 768.176 63.9718 790.223 81.9155C812.638 99.8591 823.846 124.211 823.846 154.972C823.846 177.676 817.783 196.535 805.657 211.549C793.898 226.563 778.097 237 758.255 242.859ZM618.253 211H679.986C695.419 211 707.178 207.704 715.262 201.113C723.714 194.155 727.939 184.085 727.939 170.901C727.939 157.718 723.714 147.648 715.262 140.69C707.178 133.732 695.419 130.254 679.986 130.254H618.253V211ZM687.703 364.803C703.503 364.803 715.629 361.324 724.081 354.366C732.9 347.042 737.31 336.606 737.31 323.056C737.31 309.507 732.716 298.887 723.53 291.197C714.711 283.507 702.401 279.662 686.6 279.662H618.253V364.803H687.703Z" fill="url(#paint3_linear_25_100)"/>
<path d="M940.245 55.0001V440.606H845.992V55.0001H940.245Z" fill="url(#paint4_linear_25_100)"/>
<path d="M1107.21 445C1077.08 445 1049.89 438.592 1025.64 425.775C1001.75 412.958 982.828 394.648 968.864 370.845C955.268 347.042 948.47 319.211 948.47 287.352C948.47 255.859 955.452 228.211 969.415 204.408C983.379 180.239 1002.49 161.746 1026.74 148.93C1050.99 136.113 1078.18 129.704 1108.31 129.704C1138.45 129.704 1165.64 136.113 1189.89 148.93C1214.14 161.746 1233.25 180.239 1247.21 204.408C1261.18 228.211 1268.16 255.859 1268.16 287.352C1268.16 318.845 1260.99 346.676 1246.66 370.845C1232.7 394.648 1213.41 412.958 1188.79 425.775C1164.54 438.592 1137.34 445 1107.21 445ZM1107.21 363.704C1125.22 363.704 1140.47 357.113 1152.96 343.93C1165.82 330.746 1172.25 311.887 1172.25 287.352C1172.25 262.817 1166.01 243.958 1153.51 230.775C1141.39 217.592 1126.32 211 1108.31 211C1089.94 211 1074.69 217.592 1062.57 230.775C1050.44 243.592 1044.38 262.451 1044.38 287.352C1044.38 311.887 1050.26 330.746 1062.01 343.93C1074.14 357.113 1089.21 363.704 1107.21 363.704Z" fill="url(#paint5_linear_25_100)"/>
<path d="M1416.82 445C1386.69 445 1359.5 438.592 1335.25 425.775C1311.36 412.958 1292.44 394.648 1278.48 370.845C1264.88 347.042 1258.08 319.211 1258.08 287.352C1258.08 255.859 1265.06 228.211 1279.03 204.408C1292.99 180.239 1312.1 161.746 1336.35 148.93C1360.6 136.113 1387.8 129.704 1417.93 129.704C1448.06 129.704 1475.25 136.113 1499.5 148.93C1523.75 161.746 1542.86 180.239 1556.83 204.408C1570.79 228.211 1577.77 255.859 1577.77 287.352C1577.77 318.845 1570.61 346.676 1556.27 370.845C1542.31 394.648 1523.02 412.958 1498.4 425.775C1474.15 438.592 1446.96 445 1416.82 445ZM1416.82 363.704C1434.83 363.704 1450.08 357.113 1462.57 343.93C1475.43 330.746 1481.86 311.887 1481.86 287.352C1481.86 262.817 1475.62 243.958 1463.12 230.775C1451 217.592 1435.93 211 1417.93 211C1399.55 211 1384.3 217.592 1372.18 230.775C1360.05 243.592 1353.99 262.451 1353.99 287.352C1353.99 311.887 1359.87 330.746 1371.63 343.93C1383.75 357.113 1398.82 363.704 1416.82 363.704Z" fill="url(#paint6_linear_25_100)"/>
<path d="M1978.88 130.803C2017.1 130.803 2047.41 142.338 2069.83 165.408C2092.61 188.479 2104 220.521 2104 261.535V440.606H2010.3V274.169C2010.3 254.394 2004.97 239.197 1994.31 228.577C1984.02 217.592 1969.69 212.099 1951.32 212.099C1932.95 212.099 1918.43 217.592 1907.78 228.577C1897.49 239.197 1892.34 254.394 1892.34 274.169V440.606H1798.64V274.169C1798.64 254.394 1793.31 239.197 1782.66 228.577C1772.37 217.592 1758.04 212.099 1739.67 212.099C1721.29 212.099 1706.78 217.592 1696.12 228.577C1685.83 239.197 1680.69 254.394 1680.69 274.169V440.606H1586.44V134.099H1680.69V172.549C1690.24 159.732 1702.74 149.662 1718.17 142.338C1733.6 134.648 1751.06 130.803 1770.53 130.803C1793.68 130.803 1814.26 135.746 1832.26 145.634C1850.64 155.521 1864.97 169.62 1875.26 187.93C1885.91 171.085 1900.43 157.352 1918.8 146.732C1937.17 136.113 1957.2 130.803 1978.88 130.803Z" fill="url(#paint7_linear_25_100)"/>
<defs>
<linearGradient id="paint0_linear_25_100" x1="90.8464" y1="167.962" x2="284.779" y2="164.851" gradientUnits="userSpaceOnUse">
<stop stop-color="#27E4E4"/>
<stop offset="1" stop-color="#49A4E7"/>
</linearGradient>
<linearGradient id="paint1_linear_25_100" x1="46.5556" y1="226.908" x2="301.256" y2="225.681" gradientUnits="userSpaceOnUse">
<stop stop-color="#3239DE"/>
<stop offset="1" stop-color="#49A4E7"/>
</linearGradient>
<linearGradient id="paint2_linear_25_100" x1="58.4944" y1="238.755" x2="330.999" y2="237.754" gradientUnits="userSpaceOnUse">
<stop offset="0.114583" stop-color="#27AAE4"/>
<stop offset="0.911458" stop-color="#49A4E7"/>
</linearGradient>
<linearGradient id="paint3_linear_25_100" x1="1314" y1="55" x2="1314" y2="445" gradientUnits="userSpaceOnUse">
<stop stop-color="#36CAE6"/>
<stop offset="1" stop-color="#3545DF"/>
</linearGradient>
<linearGradient id="paint4_linear_25_100" x1="1314" y1="55" x2="1314" y2="445" gradientUnits="userSpaceOnUse">
<stop stop-color="#36CAE6"/>
<stop offset="1" stop-color="#3545DF"/>
</linearGradient>
<linearGradient id="paint5_linear_25_100" x1="1314" y1="55" x2="1314" y2="445" gradientUnits="userSpaceOnUse">
<stop stop-color="#36CAE6"/>
<stop offset="1" stop-color="#3545DF"/>
</linearGradient>
<linearGradient id="paint6_linear_25_100" x1="1314" y1="55" x2="1314" y2="445" gradientUnits="userSpaceOnUse">
<stop stop-color="#36CAE6"/>
<stop offset="1" stop-color="#3545DF"/>
</linearGradient>
<linearGradient id="paint7_linear_25_100" x1="1314" y1="55" x2="1314" y2="445" gradientUnits="userSpaceOnUse">
<stop stop-color="#36CAE6"/>
<stop offset="1" stop-color="#3545DF"/>
</linearGradient>
</defs>
</svg>
