<svg id="visual" viewBox="0 0 900 600" width="900" height="600" xmlns="http://www.w3.org/2000/svg" xmlns:xlink="http://www.w3.org/1999/xlink" version="1.1"><rect x="0" y="0" width="900" height="600" fill="#ffffff"></rect><path d="M0 132L21.5 140.8C43 149.7 86 167.3 128.8 178.7C171.7 190 214.3 195 257.2 191.2C300 187.3 343 174.7 385.8 176.8C428.7 179 471.3 196 514.2 196.2C557 196.3 600 179.7 642.8 176.3C685.7 173 728.3 183 771.2 181.3C814 179.7 857 166.3 878.5 159.7L900 153L900 0L878.5 0C857 0 814 0 771.2 0C728.3 0 685.7 0 642.8 0C600 0 557 0 514.2 0C471.3 0 428.7 0 385.8 0C343 0 300 0 257.2 0C214.3 0 171.7 0 128.8 0C86 0 43 0 21.5 0L0 0Z" fill="#4bb8ff"></path><path d="M0 90L21.5 95.7C43 101.3 86 112.7 128.8 126.8C171.7 141 214.3 158 257.2 158.2C300 158.3 343 141.7 385.8 134C428.7 126.3 471.3 127.7 514.2 132.5C557 137.3 600 145.7 642.8 140.8C685.7 136 728.3 118 771.2 121.3C814 124.7 857 149.3 878.5 161.7L900 174L900 0L878.5 0C857 0 814 0 771.2 0C728.3 0 685.7 0 642.8 0C600 0 557 0 514.2 0C471.3 0 428.7 0 385.8 0C343 0 300 0 257.2 0C214.3 0 171.7 0 128.8 0C86 0 43 0 21.5 0L0 0Z" fill="#54c1fe"></path><path d="M0 84L21.5 94C43 104 86 124 128.8 130.5C171.7 137 214.3 130 257.2 127.5C300 125 343 127 385.8 133.5C428.7 140 471.3 151 514.2 148.3C557 145.7 600 129.3 642.8 115.8C685.7 102.3 728.3 91.7 771.2 100.7C814 109.7 857 138.3 878.5 152.7L900 167L900 0L878.5 0C857 0 814 0 771.2 0C728.3 0 685.7 0 642.8 0C600 0 557 0 514.2 0C471.3 0 428.7 0 385.8 0C343 0 300 0 257.2 0C214.3 0 171.7 0 128.8 0C86 0 43 0 21.5 0L0 0Z" fill="#60c9fd"></path><path d="M0 147L21.5 135.3C43 123.7 86 100.3 128.8 97.8C171.7 95.3 214.3 113.7 257.2 112.3C300 111 343 90 385.8 89.8C428.7 89.7 471.3 110.3 514.2 116.5C557 122.7 600 114.3 642.8 112.7C685.7 111 728.3 116 771.2 117.2C814 118.3 857 115.7 878.5 114.3L900 113L900 0L878.5 0C857 0 814 0 771.2 0C728.3 0 685.7 0 642.8 0C600 0 557 0 514.2 0C471.3 0 428.7 0 385.8 0C343 0 300 0 257.2 0C214.3 0 171.7 0 128.8 0C86 0 43 0 21.5 0L0 0Z" fill="#6fd1fb"></path><path d="M0 117L21.5 110.8C43 104.7 86 92.3 128.8 93.3C171.7 94.3 214.3 108.7 257.2 106.7C300 104.7 343 86.3 385.8 84.5C428.7 82.7 471.3 97.3 514.2 104.3C557 111.3 600 110.7 642.8 111C685.7 111.3 728.3 112.7 771.2 110.2C814 107.7 857 101.3 878.5 98.2L900 95L900 0L878.5 0C857 0 814 0 771.2 0C728.3 0 685.7 0 642.8 0C600 0 557 0 514.2 0C471.3 0 428.7 0 385.8 0C343 0 300 0 257.2 0C214.3 0 171.7 0 128.8 0C86 0 43 0 21.5 0L0 0Z" fill="#7fd9fa"></path><path d="M0 60L21.5 57.5C43 55 86 50 128.8 56.2C171.7 62.3 214.3 79.7 257.2 84C300 88.3 343 79.7 385.8 78.5C428.7 77.3 471.3 83.7 514.2 86.7C557 89.7 600 89.3 642.8 87.5C685.7 85.7 728.3 82.3 771.2 84.2C814 86 857 93 878.5 96.5L900 100L900 0L878.5 0C857 0 814 0 771.2 0C728.3 0 685.7 0 642.8 0C600 0 557 0 514.2 0C471.3 0 428.7 0 385.8 0C343 0 300 0 257.2 0C214.3 0 171.7 0 128.8 0C86 0 43 0 21.5 0L0 0Z" fill="#90e0f9"></path><path d="M0 70L21.5 72C43 74 86 78 128.8 74.2C171.7 70.3 214.3 58.7 257.2 55.2C300 51.7 343 56.3 385.8 54.2C428.7 52 471.3 43 514.2 45.7C557 48.3 600 62.7 642.8 65.8C685.7 69 728.3 61 771.2 53.5C814 46 857 39 878.5 35.5L900 32L900 0L878.5 0C857 0 814 0 771.2 0C728.3 0 685.7 0 642.8 0C600 0 557 0 514.2 0C471.3 0 428.7 0 385.8 0C343 0 300 0 257.2 0C214.3 0 171.7 0 128.8 0C86 0 43 0 21.5 0L0 0Z" fill="#a1e7f9"></path><path d="M0 52L21.5 51.5C43 51 86 50 128.8 47.5C171.7 45 214.3 41 257.2 40.7C300 40.3 343 43.7 385.8 42.5C428.7 41.3 471.3 35.7 514.2 32C557 28.3 600 26.7 642.8 24.7C685.7 22.7 728.3 20.3 771.2 25.8C814 31.3 857 44.7 878.5 51.3L900 58L900 0L878.5 0C857 0 814 0 771.2 0C728.3 0 685.7 0 642.8 0C600 0 557 0 514.2 0C471.3 0 428.7 0 385.8 0C343 0 300 0 257.2 0C214.3 0 171.7 0 128.8 0C86 0 43 0 21.5 0L0 0Z" fill="#b2eef9"></path><path d="M0 8L21.5 9.2C43 10.3 86 12.7 128.8 17.5C171.7 22.3 214.3 29.7 257.2 28.7C300 27.7 343 18.3 385.8 16.2C428.7 14 471.3 19 514.2 22C557 25 600 26 642.8 27.7C685.7 29.3 728.3 31.7 771.2 30C814 28.3 857 22.7 878.5 19.8L900 17L900 0L878.5 0C857 0 814 0 771.2 0C728.3 0 685.7 0 642.8 0C600 0 557 0 514.2 0C471.3 0 428.7 0 385.8 0C343 0 300 0 257.2 0C214.3 0 171.7 0 128.8 0C86 0 43 0 21.5 0L0 0Z" fill="#c3f4fa"></path></svg>