<svg id="visual" viewBox="0 0 900 600" width="900" height="600" xmlns="http://www.w3.org/2000/svg" xmlns:xlink="http://www.w3.org/1999/xlink" version="1.1"><rect x="0" y="0" width="900" height="600" fill="#ffffff"></rect><path d="M0 167L21.5 164.5C43 162 86 157 128.8 159.2C171.7 161.3 214.3 170.7 257.2 168.8C300 167 343 154 385.8 150.3C428.7 146.7 471.3 152.3 514.2 155C557 157.7 600 157.3 642.8 160.2C685.7 163 728.3 169 771.2 170.3C814 171.7 857 168.3 878.5 166.7L900 165L900 0L878.5 0C857 0 814 0 771.2 0C728.3 0 685.7 0 642.8 0C600 0 557 0 514.2 0C471.3 0 428.7 0 385.8 0C343 0 300 0 257.2 0C214.3 0 171.7 0 128.8 0C86 0 43 0 21.5 0L0 0Z" fill="#4bb8ff"></path><path d="M0 139L21.5 143C43 147 86 155 128.8 151C171.7 147 214.3 131 257.2 123.7C300 116.3 343 117.7 385.8 120.7C428.7 123.7 471.3 128.3 514.2 125.8C557 123.3 600 113.7 642.8 110.5C685.7 107.3 728.3 110.7 771.2 120.5C814 130.3 857 146.7 878.5 154.8L900 163L900 0L878.5 0C857 0 814 0 771.2 0C728.3 0 685.7 0 642.8 0C600 0 557 0 514.2 0C471.3 0 428.7 0 385.8 0C343 0 300 0 257.2 0C214.3 0 171.7 0 128.8 0C86 0 43 0 21.5 0L0 0Z" fill="#60c9fd"></path><path d="M0 112L21.5 107C43 102 86 92 128.8 91.3C171.7 90.7 214.3 99.3 257.2 100.7C300 102 343 96 385.8 97.7C428.7 99.3 471.3 108.7 514.2 106.5C557 104.3 600 90.7 642.8 83.8C685.7 77 728.3 77 771.2 85.2C814 93.3 857 109.7 878.5 117.8L900 126L900 0L878.5 0C857 0 814 0 771.2 0C728.3 0 685.7 0 642.8 0C600 0 557 0 514.2 0C471.3 0 428.7 0 385.8 0C343 0 300 0 257.2 0C214.3 0 171.7 0 128.8 0C86 0 43 0 21.5 0L0 0Z" fill="#7fd9fa"></path><path d="M0 85L21.5 85.8C43 86.7 86 88.3 128.8 84.3C171.7 80.3 214.3 70.7 257.2 64C300 57.3 343 53.7 385.8 58C428.7 62.3 471.3 74.7 514.2 77.2C557 79.7 600 72.3 642.8 68.8C685.7 65.3 728.3 65.7 771.2 67.2C814 68.7 857 71.3 878.5 72.7L900 74L900 0L878.5 0C857 0 814 0 771.2 0C728.3 0 685.7 0 642.8 0C600 0 557 0 514.2 0C471.3 0 428.7 0 385.8 0C343 0 300 0 257.2 0C214.3 0 171.7 0 128.8 0C86 0 43 0 21.5 0L0 0Z" fill="#a1e7f9"></path><path d="M0 41L21.5 42.2C43 43.3 86 45.7 128.8 45.3C171.7 45 214.3 42 257.2 40.3C300 38.7 343 38.3 385.8 36.2C428.7 34 471.3 30 514.2 30.7C557 31.3 600 36.7 642.8 40.3C685.7 44 728.3 46 771.2 44.3C814 42.7 857 37.3 878.5 34.7L900 32L900 0L878.5 0C857 0 814 0 771.2 0C728.3 0 685.7 0 642.8 0C600 0 557 0 514.2 0C471.3 0 428.7 0 385.8 0C343 0 300 0 257.2 0C214.3 0 171.7 0 128.8 0C86 0 43 0 21.5 0L0 0Z" fill="#c3f4fa"></path></svg>