<svg id="visual" viewBox="0 0 900 600" width="900" height="600" xmlns="http://www.w3.org/2000/svg" xmlns:xlink="http://www.w3.org/1999/xlink" version="1.1"><rect x="0" y="0" width="900" height="600" fill="#ffffff"></rect><path d="M0 192L21.5 190.2C43 188.3 86 184.7 128.8 175C171.7 165.3 214.3 149.7 257.2 142.7C300 135.7 343 137.3 385.8 145.7C428.7 154 471.3 169 514.2 166.2C557 163.3 600 142.7 642.8 140.7C685.7 138.7 728.3 155.3 771.2 168C814 180.7 857 189.3 878.5 193.7L900 198L900 0L878.5 0C857 0 814 0 771.2 0C728.3 0 685.7 0 642.8 0C600 0 557 0 514.2 0C471.3 0 428.7 0 385.8 0C343 0 300 0 257.2 0C214.3 0 171.7 0 128.8 0C86 0 43 0 21.5 0L0 0Z" fill="#4bb8ff"></path><path d="M0 137L21.5 137C43 137 86 137 128.8 132.5C171.7 128 214.3 119 257.2 120.7C300 122.3 343 134.7 385.8 138.3C428.7 142 471.3 137 514.2 132.7C557 128.3 600 124.7 642.8 122.8C685.7 121 728.3 121 771.2 127.5C814 134 857 147 878.5 153.5L900 160L900 0L878.5 0C857 0 814 0 771.2 0C728.3 0 685.7 0 642.8 0C600 0 557 0 514.2 0C471.3 0 428.7 0 385.8 0C343 0 300 0 257.2 0C214.3 0 171.7 0 128.8 0C86 0 43 0 21.5 0L0 0Z" fill="#60c9fd"></path><path d="M0 110L21.5 110.2C43 110.3 86 110.7 128.8 113.5C171.7 116.3 214.3 121.7 257.2 115.2C300 108.7 343 90.3 385.8 85.7C428.7 81 471.3 90 514.2 93C557 96 600 93 642.8 94.5C685.7 96 728.3 102 771.2 104C814 106 857 104 878.5 103L900 102L900 0L878.5 0C857 0 814 0 771.2 0C728.3 0 685.7 0 642.8 0C600 0 557 0 514.2 0C471.3 0 428.7 0 385.8 0C343 0 300 0 257.2 0C214.3 0 171.7 0 128.8 0C86 0 43 0 21.5 0L0 0Z" fill="#7fd9fa"></path><path d="M0 72L21.5 68.3C43 64.7 86 57.3 128.8 56.8C171.7 56.3 214.3 62.7 257.2 63.2C300 63.7 343 58.3 385.8 55.5C428.7 52.7 471.3 52.3 514.2 53.3C557 54.3 600 56.7 642.8 61.2C685.7 65.7 728.3 72.3 771.2 75.3C814 78.3 857 77.7 878.5 77.3L900 77L900 0L878.5 0C857 0 814 0 771.2 0C728.3 0 685.7 0 642.8 0C600 0 557 0 514.2 0C471.3 0 428.7 0 385.8 0C343 0 300 0 257.2 0C214.3 0 171.7 0 128.8 0C86 0 43 0 21.5 0L0 0Z" fill="#a1e7f9"></path><path d="M0 26L21.5 25.5C43 25 86 24 128.8 26.5C171.7 29 214.3 35 257.2 40.8C300 46.7 343 52.3 385.8 51.7C428.7 51 471.3 44 514.2 41.8C557 39.7 600 42.3 642.8 40C685.7 37.7 728.3 30.3 771.2 28.8C814 27.3 857 31.7 878.5 33.8L900 36L900 0L878.5 0C857 0 814 0 771.2 0C728.3 0 685.7 0 642.8 0C600 0 557 0 514.2 0C471.3 0 428.7 0 385.8 0C343 0 300 0 257.2 0C214.3 0 171.7 0 128.8 0C86 0 43 0 21.5 0L0 0Z" fill="#c3f4fa"></path></svg>